<?xml version="1.0" encoding="UTF-8"?>
<svg width="174px" height="173px" viewBox="0 0 174 173" version="1.1" xmlns="http://www.w3.org/2000/svg" xmlns:xlink="http://www.w3.org/1999/xlink">
    <title>E4BC4489-E7F7-4FC8-B574-3AA399AB9297</title>
    <g id="Podcast-Randomizer" stroke="none" stroke-width="1" fill="none" fill-rule="evenodd">
        <g id="Shapes" transform="translate(-450.000000, -124.000000)">
            <polygon id="Star-Copy-16" fill="#D8D8D8" points="536 258.841402 524.489671 269.866332 518.074572 255.275812 503.221356 261.056707 502.878127 245.121873 486.943293 244.778644 492.724188 229.925428 478.133668 223.510329 489.158598 212 478.133668 200.489671 492.724188 194.074572 486.943293 179.221356 502.878127 178.878127 503.221356 162.943293 518.074572 168.724188 524.489671 154.133668 536 165.158598 547.510329 154.133668 553.925428 168.724188 568.778644 162.943293 569.121873 178.878127 585.056707 179.221356 579.275812 194.074572 593.866332 200.489671 582.841402 212 593.866332 223.510329 579.275812 229.925428 585.056707 244.778644 569.121873 245.121873 568.778644 261.056707 553.925428 255.275812 547.510329 269.866332"></polygon>
            <g id="Group-9" transform="translate(450.000000, 124.000000)"></g>
        </g>
    </g>
</svg>