<?xml version="1.0" encoding="UTF-8"?>
<svg width="174px" height="173px" viewBox="0 0 174 173" version="1.1" xmlns="http://www.w3.org/2000/svg" xmlns:xlink="http://www.w3.org/1999/xlink">
    <title>7CC31940-D679-4476-9DF7-7B26D19AD9B7</title>
    <g id="Podcast-Randomizer" stroke="none" stroke-width="1" fill="none" fill-rule="evenodd">
        <g id="Shapes" transform="translate(-767.000000, -564.000000)">
            <polygon id="Star-Copy-16" fill="#D8D8D8" points="854 696.841402 842.489671 707.866332 836.074572 693.275812 821.221356 699.056707 820.878127 683.121873 804.943293 682.778644 810.724188 667.925428 796.133668 661.510329 807.158598 650 796.133668 638.489671 810.724188 632.074572 804.943293 617.221356 820.878127 616.878127 821.221356 600.943293 836.074572 606.724188 842.489671 592.133668 854 603.158598 865.510329 592.133668 871.925428 606.724188 886.778644 600.943293 887.121873 616.878127 903.056707 617.221356 897.275812 632.074572 911.866332 638.489671 900.841402 650 911.866332 661.510329 897.275812 667.925428 903.056707 682.778644 887.121873 683.121873 886.778644 699.056707 871.925428 693.275812 865.510329 707.866332"></polygon>
            <g id="Group-9" transform="translate(557.000000, 124.000000)"></g>
        </g>
    </g>
</svg>