<?xml version="1.0" encoding="UTF-8"?>
<svg width="174px" height="173px" viewBox="0 0 174 173" version="1.1" xmlns="http://www.w3.org/2000/svg" xmlns:xlink="http://www.w3.org/1999/xlink">
    <title>2EF56CE2-4051-4C04-8187-007BF96026AD</title>
    <g id="Podcast-Randomizer" stroke="none" stroke-width="1" fill="none" fill-rule="evenodd">
        <g id="Shapes" transform="translate(-978.000000, -564.000000)">
            <g id="Group-6" transform="translate(1019.877135, 594.500000)" fill="#D8D8D8">
                <path d="M89.2332221,0.610357025 L89.2332221,41.486357 L88.6312221,41.491643 C65.9406032,41.491643 47.5032598,23.552701 47.136782,1.28640384 L47.1312221,0.610357025 L47.1312221,0.610357025 L89.2332221,0.610357025 Z" id="Combined-Shape-Copy-3" transform="translate(68.182222, 21.051000) rotate(-270.000000) translate(-68.182222, -21.051000) "></path>
                <path d="M49.1145081,0.610357025 L49.1145081,41.486357 L48.5125081,41.491643 C25.8218891,41.491643 7.38454571,23.552701 7.0180679,1.28640384 L7.01250809,0.610357025 L7.01250809,0.610357025 L49.1145081,0.610357025 Z" id="Combined-Shape-Copy-4" transform="translate(28.063508, 21.051000) scale(-1, 1) rotate(-270.000000) translate(-28.063508, -21.051000) "></path>
                <path d="M85.0653042,56.7057623 L85.0658459,125.520486 C84.6452932,125.527849 84.2238336,125.531546 83.8014987,125.531546 C45.2215401,125.531546 13.9463042,94.6818235 13.9463042,56.6267623 L13.9473042,56.7057623 L85.0653042,56.7057623 Z" id="Combined-Shape-Copy-5" transform="translate(49.506075, 91.079154) scale(-1, 1) rotate(-45.000000) translate(-49.506075, -91.079154) "></path>
            </g>
            <g id="Group-9" transform="translate(557.000000, 124.000000)"></g>
        </g>
    </g>
</svg>