<?xml version="1.0" encoding="UTF-8"?>
<svg width="174px" height="173px" viewBox="0 0 174 173" version="1.1" xmlns="http://www.w3.org/2000/svg" xmlns:xlink="http://www.w3.org/1999/xlink">
    <title>60329A79-07A6-4D4F-ABA0-4A5C706E2EE4</title>
    <g id="Podcast-Randomizer" stroke="none" stroke-width="1" fill="none" fill-rule="evenodd">
        <g id="Shapes" transform="translate(-1189.000000, -344.000000)">
            <g id="Group-4" transform="translate(1276.000000, 431.000000) rotate(-315.000000) translate(-1276.000000, -431.000000) translate(1215.094488, 370.094488)" fill="#D8D8D8">
                <path d="M60.9067513,-7.79376563e-13 C70.3320069,7.03256702 76.4055124,18.0786853 76.4055124,30.4999208 C76.4055124,42.9211564 70.3320069,53.9672747 60.9067513,60.9998417 C51.4794481,53.9680569 45.4055124,42.9215962 45.4055124,30.4999208 C45.4055124,18.1785267 51.3817732,7.21023235 60.6776451,0.170359018 Z" id="Combined-Shape"></path>
                <path d="M60.9067513,60.8111832 C70.3320069,67.8437502 76.4055124,78.8898685 76.4055124,91.311104 C76.4055124,103.73234 70.3320069,114.778458 60.9067513,121.811025 C51.4794481,114.77924 45.4055124,103.732779 45.4055124,91.311104 C45.4055124,78.9897099 51.3817732,68.0214155 60.6776451,60.9815422 Z" id="Combined-Shape-Copy"></path>
                <path d="M91.3123429,30.4055916 C100.737598,37.4381586 106.811104,48.4842769 106.811104,60.9055124 C106.811104,73.3267479 100.737598,84.3728663 91.3123429,91.4054333 C81.8850397,84.3736485 75.811104,73.3271878 75.811104,60.9055124 C75.811104,48.5841183 81.7873648,37.6158239 91.0832367,30.5759506 Z" id="Combined-Shape" transform="translate(91.311104, 60.905512) rotate(-270.000000) translate(-91.311104, -60.905512) "></path>
                <path d="M30.5011597,30.4055916 C39.9264153,37.4381586 45.9999208,48.4842769 45.9999208,60.9055124 C45.9999208,73.3267479 39.9264153,84.3728663 30.5011597,91.4054333 C21.0738565,84.3736485 14.9999208,73.3271878 14.9999208,60.9055124 C14.9999208,48.5841183 20.9761816,37.6158239 30.2720536,30.5759506 Z" id="Combined-Shape-Copy" transform="translate(30.499921, 60.905512) rotate(-270.000000) translate(-30.499921, -60.905512) "></path>
            </g>
            <g id="Group-9" transform="translate(557.000000, 124.000000)"></g>
        </g>
    </g>
</svg>