<?xml version="1.0" encoding="UTF-8"?>
<svg width="174px" height="173px" viewBox="0 0 174 173" version="1.1" xmlns="http://www.w3.org/2000/svg" xmlns:xlink="http://www.w3.org/1999/xlink">
    <title>505BAB66-F613-4F32-837E-FD4993B4C2C1</title>
    <g id="Podcast-Randomizer" stroke="none" stroke-width="1" fill="none" fill-rule="evenodd">
        <g id="Shapes" transform="translate(-660.000000, -784.000000)">
            <path d="M716,902.5 C699.155315,902.5 685.5,888.844685 685.5,872 C685.5,855.155315 699.155315,841.5 716,841.5 C716,824.655315 729.655315,811 746.5,811 C763.176238,811 776.726575,824.383574 776.995914,840.995627 L777,841.5 L777,841.5 C793.844685,841.5 807.5,855.155315 807.5,872 C807.5,888.676238 794.116426,902.226575 777.504373,902.495914 L777,902.5 L777,902.5 C777,919.344685 763.344685,933 746.5,933 C729.655315,933 716,919.344685 716,902.5 L716,902.5 Z" id="Combined-Shape" fill="#D8D8D8"></path>
            <g id="Group-9" transform="translate(450.000000, 124.000000)"></g>
        </g>
    </g>
</svg>